<?xml version="1.0" encoding="utf-8"?>
<!-- Generator: Adobe Illustrator 21.1.0, SVG Export Plug-In . SVG Version: 6.00 Build 0)  -->
<svg version="1.1" xmlns="http://www.w3.org/2000/svg" xmlns:xlink="http://www.w3.org/1999/xlink" x="0px" y="0px"
	 viewBox="0 0 612 792" style="enable-background:new 0 0 612 792;" xml:space="preserve">
<style type="text/css">
	.st0{fill:#D3D3D3;}
	.st1{fill:none;stroke:#000000;stroke-miterlimit:10;}
	.st2{fill:none;}
	.st3{font-family:'Constantia-Bold';}
	.st4{font-size:60px;}
	.st5{font-family:'TimesNewRomanPSMT';}
	.st6{font-size:12.5px;}
	.st7{stroke:#000000;stroke-miterlimit:10;}
	.st8{fill:#FFFFFF;}
	.st9{font-family:'Neutraface2Display-Titling';}
	.st10{font-size:23px;}
	.st11{fill:none;stroke:#FFFFFF;stroke-width:2;stroke-miterlimit:10;}
	.st12{font-family:'Neutraface2Text-Book';}
	.st13{font-size:16px;}
	.st14{font-size:17px;}
	.st15{fill:#FFFFFF;stroke:#000000;stroke-miterlimit:10;}
	.st16{fill:none;stroke:#3A55A5;stroke-width:5;stroke-miterlimit:10;}
	.st17{font-family:'Constantia';}
	.st18{fill:none;stroke:#FFFFFF;stroke-width:6;stroke-miterlimit:10;}
	.st19{fill:#A5A4A4;}
	.st20{font-family:'Constantia-Italic';}
	.st21{font-size:12px;}
	.st22{stroke:#020202;stroke-miterlimit:10;}
	.st23{font-size:13px;}
	.st24{fill:#3B55A5;stroke:#000000;stroke-width:2;stroke-miterlimit:10;}
	.st25{fill:#C2C3C6;}
	.st26{fill:none;stroke:#000000;stroke-width:2;stroke-miterlimit:10;}
	.st27{fill:#010101;}
	.st28{fill:none;stroke:#69CCE2;stroke-width:4;stroke-miterlimit:10;}
	.st29{fill:none;stroke:#F15623;stroke-width:4;stroke-miterlimit:10;}
	.st30{fill:none;stroke:#65CBE4;stroke-width:9;stroke-miterlimit:10;}
	.st31{fill:none;stroke:#F15623;stroke-width:9;stroke-miterlimit:10;}
	.st32{fill:none;stroke:#FFFFFF;stroke-width:4;stroke-miterlimit:10;}
</style>
<g id="Layer_1">
	<rect x="0.1" class="st0" width="186.9" height="792"/>
	<line class="st1" x1="184.8" y1="0" x2="184.8" y2="792"/>
	<line class="st1" x1="186.6" y1="109.7" x2="612" y2="109.7"/>
	<rect x="191.6" y="22.2" class="st2" width="420.4" height="66.8"/>
	<text transform="matrix(1 0 0 1 208.0576 66.3755)" class="st3 st4">Nia Anderson</text>
	<rect x="186.6" y="92.2" class="st2" width="520" height="34.9"/>
	<text transform="matrix(1 0 0 1 186.5962 100.9287)" class="st5 st6">100 N Dupont Rd, Wilmington, DE 19805   (302)-651-2700   nhoopsz3@gmail.com</text>
	<circle class="st7" cx="491.7" cy="98.3" r="1.3"/>
	<circle class="st7" cx="402.7" cy="98" r="1.3"/>
	<rect x="12.1" y="168.2" class="st2" width="162.8" height="23"/>
	<text transform="matrix(1 0 0 1 46.9185 183.7988)" class="st8 st9 st10">Profile</text>
	<line class="st11" x1="55" y1="188" x2="131.8" y2="188"/>
	<rect x="0.8" y="234" class="st2" width="182" height="217"/>
	<text transform="matrix(1 0 0 1 4.085 245.5518)"><tspan x="0" y="0" class="st8 st12 st13">A young and aspiring Sof</tspan><tspan x="170.9" y="0" class="st8 st12 st13">-</tspan><tspan x="9.3" y="19.2" class="st8 st12 st13">ware Engineer, Graphic </tspan><tspan x="5.7" y="38.4" class="st8 st12 st13">Designer, and Basketball </tspan><tspan x="7.4" y="57.6" class="st8 st12 st13">Player. Double majors in </tspan><tspan x="1.2" y="76.8" class="st8 st12 st13">Theatre and Digital Media </tspan><tspan x="-1.2" y="96" class="st8 st12 st13">and Imaging. A committed, </tspan><tspan x="3.2" y="115.2" class="st8 st12 st13">organized, ambitious, and </tspan><tspan x="-0.3" y="134.4" class="st8 st12 st13">determined individual who </tspan><tspan x="5.1" y="153.6" class="st8 st12 st13">wishes to grow and learn </tspan><tspan x="0.2" y="172.8" class="st8 st12 st13">professionally and person</tspan><tspan x="170.7" y="172.8" class="st8 st12 st13">-</tspan><tspan x="75" y="192" class="st8 st12 st13">ally. </tspan></text>
	<rect x="201" y="134.7" class="st2" width="104" height="19"/>
	<text transform="matrix(1 0 0 1 210.5039 147.1709)" class="st3 st14">Languages</text>
	<line class="st15" x1="209" y1="130" x2="612" y2="130"/>
	<line class="st15" x1="209" y1="153" x2="612" y2="153"/>
	<rect x="207" y="292.4" class="st2" width="104" height="19"/>
	<text transform="matrix(1 0 0 1 230.9473 304.9375)" class="st3 st14">Design </text>
	<line class="st15" x1="208" y1="287.8" x2="611" y2="287.8"/>
	<line class="st15" x1="208" y1="310.8" x2="611" y2="310.8"/>
	<rect x="199.5" y="488.4" class="st2" width="104" height="19"/>
	<text transform="matrix(1 0 0 1 210.457 500.9375)" class="st3 st14">Education</text>
	<line class="st15" x1="208.5" y1="483.8" x2="611.5" y2="483.8"/>
	<line class="st15" x1="208.5" y1="506.8" x2="611.5" y2="506.8"/>
	<circle class="st16" cx="277" cy="223" r="50.5"/>
	<circle class="st16" cx="412.6" cy="223" r="50.5"/>
	<circle class="st16" cx="543.5" cy="223" r="50.5"/>
	<text transform="matrix(1 0 0 1 249.6729 224)" class="st17 st14">English</text>
	<text transform="matrix(1 0 0 1 386.293 223)" class="st17 st14">French</text>
	<text transform="matrix(1 0 0 1 516.1094 223)" class="st17 st14">Spanish</text>
	<line class="st18" x1="422.7" y1="260.9" x2="432.1" y2="286.1"/>
	<line class="st18" x1="446.6" y1="165.7" x2="422.7" y2="186"/>
	<rect x="513" y="242" class="st8" width="81" height="36"/>
	<rect x="575" y="172.5" class="st8" width="40" height="74.5"/>
	<rect x="483" y="227" class="st8" width="40" height="59.1"/>

		<rect x="436.6" y="165.7" transform="matrix(0.9987 -5.017797e-02 5.017797e-02 0.9987 -10.5599 23.0259)" class="st8" width="33.4" height="112.3"/>
	<rect x="422.7" y="260.9" class="st8" width="33.4" height="25.1"/>
	<line class="st2" x1="437.6" y1="165.7" x2="435.6" y2="186"/>
	<text transform="matrix(1 0 0 1 258.6846 247)" class="st19 st20 st21">Fluent</text>
	<text transform="matrix(1 0 0 1 340.002 542)" class="st22 st5 st21">2012 -2015</text>
	<text transform="matrix(1 0 0 1 244.502 542)" class="st22 st5 st21">2008 -2012</text>
	<text transform="matrix(1 0 0 1 425.8887 542)"><tspan x="0" y="0" class="st22 st5 st21">2015 - </tspan><tspan x="34" y="0" class="st22 st5 st23">Present</tspan></text>
	<text transform="matrix(1 0 0 1 190.9209 577)" class="st19 st20 st21">Past</text>
	<text transform="matrix(1 0 0 1 239.3877 627)"><tspan x="0" y="0" class="st19 st20 st21">Elementary </tspan><tspan x="13.6" y="14.4" class="st19 st20 st21">School</tspan></text>
	<text transform="matrix(1 0 0 1 348.5771 630)"><tspan x="0" y="0" class="st19 st20 st21">Middle </tspan><tspan x="1.9" y="14.4" class="st19 st20 st21">School</tspan></text>
	<text transform="matrix(1 0 0 1 447.9443 631)"><tspan x="0" y="0" class="st19 st20 st21">High </tspan><tspan x="-2.9" y="14.4" class="st19 st20 st21">School</tspan></text>
	<text transform="matrix(1 0 0 1 572.3438 578)" class="st19 st20 st21">Future</text>
	<rect x="405" y="256.5" class="st8" width="33.4" height="29.5"/>

		<rect x="477.7" y="194.1" transform="matrix(5.167647e-02 -0.9987 0.9987 5.167647e-02 244.5193 693.0691)" class="st8" width="18.9" height="47.3"/>
	<circle class="st24" cx="438.5" cy="325.5" r="5.5"/>
	<circle class="st25" cx="271.5" cy="557.4" r="5.5"/>
	<circle class="st25" cx="367.5" cy="557" r="5.5"/>
	<circle class="st25" cx="546.5" cy="557" r="5.5"/>
	<circle class="st25" cx="463.1" cy="557.4" r="5.5"/>
	<circle class="st24" cx="456.7" cy="325.5" r="5.5"/>
	<circle class="st24" cx="474.7" cy="325.5" r="5.5"/>
	<circle class="st24" cx="491.4" cy="325.5" r="5.5"/>
	<circle class="st24" cx="508" cy="325.5" r="5.5"/>
	<circle class="st24" cx="524.8" cy="325.5" r="5.5"/>
	<circle class="st24" cx="541.2" cy="325.5" r="5.5"/>
	<circle class="st24" cx="558" cy="325.5" r="5.5"/>
	<circle class="st24" cx="575" cy="325.5" r="5.5"/>
	<circle class="st26" cx="591.5" cy="325.5" r="5.5"/>
	<circle class="st24" cx="439" cy="352.5" r="5.5"/>
	<circle class="st24" cx="457.2" cy="352.5" r="5.5"/>
	<circle class="st24" cx="475.2" cy="352.5" r="5.5"/>
	<circle class="st24" cx="491.9" cy="352.5" r="5.5"/>
	<circle class="st24" cx="508.6" cy="352.5" r="5.5"/>
	<circle class="st24" cx="525.3" cy="352.5" r="5.5"/>
	<circle class="st26" cx="541.7" cy="352.5" r="5.5"/>
	<circle class="st26" cx="558.5" cy="352.5" r="5.5"/>
	<circle class="st26" cx="575.5" cy="352.5" r="5.5"/>
	<circle class="st26" cx="592" cy="352.5" r="5.5"/>
	<rect x="276.1" y="321" class="st2" width="138.6" height="20"/>
	<text transform="matrix(1 0 0 1 276.0957 330.5679)" class="st17 st23">Adobe Illustrator</text>
	<rect x="234.5" y="564.9" class="st2" width="72.7" height="50.1"/>
	<text transform="matrix(1 0 0 1 245.5972 574.4497)"><tspan x="0" y="0" class="st17 st23">Red Lion </tspan><tspan x="-0.7" y="15.6" class="st17 st23">Christian </tspan><tspan x="-0.8" y="31.2" class="st17 st23">Academy</tspan></text>
	<rect x="325.3" y="569" class="st2" width="84.5" height="46"/>
	<text transform="matrix(1 0 0 1 329.3701 578.5679)"><tspan x="0" y="0" class="st17 st23">Cab Calloway </tspan><tspan x="1.2" y="15.6" class="st17 st23">School of the </tspan><tspan x="26.3" y="31.2" class="st17 st23">Arts</tspan></text>
	<rect x="423.5" y="569" class="st2" width="84.5" height="46"/>
	<text transform="matrix(1 0 0 1 427.5771 578.5679)"><tspan x="0" y="0" class="st17 st23">Cab Calloway </tspan><tspan x="1.2" y="15.6" class="st17 st23">School of the </tspan><tspan x="26.3" y="31.2" class="st17 st23">Arts</tspan></text>
	<rect x="276.1" y="347" class="st2" width="138.6" height="20"/>
	<text transform="matrix(1 0 0 1 276.0957 356.5679)" class="st17 st23">Adobe Photoshop</text>
	<circle class="st24" cx="438.9" cy="376.5" r="5.5"/>
	<circle class="st24" cx="457" cy="376.5" r="5.5"/>
	<circle class="st24" cx="475" cy="376.5" r="5.5"/>
	<circle class="st24" cx="491.7" cy="376.5" r="5.5"/>
	<circle class="st26" cx="508.4" cy="376.5" r="5.5"/>
	<circle class="st26" cx="525.2" cy="376.5" r="5.5"/>
	<circle class="st26" cx="541.5" cy="376.5" r="5.5"/>
	<circle class="st26" cx="558.4" cy="376.5" r="5.5"/>
	<circle class="st26" cx="575.4" cy="376.5" r="5.5"/>
	<circle class="st26" cx="591.9" cy="376.5" r="5.5"/>
	<rect x="274.9" y="371" class="st2" width="138.6" height="20"/>
	<text transform="matrix(1 0 0 1 274.9121 380.5679)" class="st17 st23">Adobe Indesign</text>
	<circle class="st24" cx="438.9" cy="401.5" r="5.5"/>
	<circle class="st24" cx="457" cy="401.5" r="5.5"/>
	<circle class="st24" cx="475" cy="401.5" r="5.5"/>
	<circle class="st24" cx="491.7" cy="401.5" r="5.5"/>
	<circle class="st24" cx="508.4" cy="401.5" r="5.5"/>
	<circle class="st24" cx="525.2" cy="401.5" r="5.5"/>
	<circle class="st26" cx="541.5" cy="401.5" r="5.5"/>
	<circle class="st26" cx="558.4" cy="401.5" r="5.5"/>
	<circle class="st26" cx="575.4" cy="401.5" r="5.5"/>
	<circle class="st26" cx="591.9" cy="401.5" r="5.5"/>
	<rect x="274.9" y="396" class="st2" width="138.6" height="20"/>
	<text transform="matrix(1 0 0 1 274.9121 405.5679)" class="st17 st23">HTML and CSS</text>
	<circle class="st24" cx="438.6" cy="425.5" r="5.5"/>
	<circle class="st24" cx="456.7" cy="425.5" r="5.5"/>
	<circle class="st24" cx="474.7" cy="425.5" r="5.5"/>
	<circle class="st24" cx="491.4" cy="425.5" r="5.5"/>
	<circle class="st26" cx="508.1" cy="425.5" r="5.5"/>
	<circle class="st26" cx="524.9" cy="425.5" r="5.5"/>
	<circle class="st26" cx="541.2" cy="425.5" r="5.5"/>
	<circle class="st26" cx="558.1" cy="425.5" r="5.5"/>
	<circle class="st26" cx="575.1" cy="425.5" r="5.5"/>
	<circle class="st26" cx="591.6" cy="425.5" r="5.5"/>
	<rect x="274.6" y="420" class="st2" width="138.6" height="20"/>
	<text transform="matrix(1 0 0 1 274.6143 429.5679)" class="st17 st23">Drawing</text>
	<circle class="st24" cx="438.4" cy="449.5" r="5.5"/>
	<circle class="st24" cx="456.5" cy="449.5" r="5.5"/>
	<circle class="st24" cx="474.5" cy="449.5" r="5.5"/>
	<circle class="st24" cx="491.2" cy="449.5" r="5.5"/>
	<circle class="st24" cx="507.9" cy="449.5" r="5.5"/>
	<circle class="st24" cx="524.7" cy="449.5" r="5.5"/>
	<circle class="st26" cx="541" cy="449.5" r="5.5"/>
	<circle class="st26" cx="557.9" cy="449.5" r="5.5"/>
	<circle class="st26" cx="574.9" cy="449.5" r="5.5"/>
	<circle class="st26" cx="591.4" cy="449.5" r="5.5"/>
	<rect x="274.4" y="444" class="st2" width="138.6" height="20"/>
	<text transform="matrix(1 0 0 1 274.4121 453.5679)" class="st17 st23">Typography</text>
	<g>
		<g>
			<path d="M211.8,557.5c35.5,0,71.1,0,106.6,0c63.9,0,127.8,0,191.6,0c28.8,0,57.6,0,86.4,0c0.7,0,2.1-1,0.8-1
				c-35.5,0-71.1,0-106.6,0c-63.9,0-127.8,0-191.6,0c-28.8,0-57.6,0-86.4,0C211.9,556.5,210.5,557.5,211.8,557.5L211.8,557.5z"/>
		</g>
	</g>
	<polygon points="201,557.6 216.9,562.5 216.9,551.5 	"/>
	<polygon points="606,556.8 589.5,551.9 589.5,562.9 	"/>
</g>
<g id="Nia_Logo">
	<circle class="st27" cx="91.8" cy="79.5" r="74.1"/>
	<polyline class="st28" points="56.1,80 56.1,17.9 93.8,76.1 95.1,6.3 	"/>
	<polyline class="st29" points="91.8,153 95.4,79.3 142.9,132.6 	"/>
	<line class="st29" x1="118.8" y1="106" x2="93.5" y2="117.8"/>
	<line class="st30" x1="95.4" y1="79" x2="95.4" y2="5.9"/>
	<line class="st31" x1="91.8" y1="153.7" x2="95.5" y2="77"/>
	<line class="st32" x1="159.2" y1="11.5" x2="22.1" y2="153.7"/>
</g>
</svg>
